<svg width="24" height="24" fill="none" xmlns="http://www.w3.org/2000/svg"><path fill-rule="evenodd" clip-rule="evenodd" d="M2.314 10.875h4.1c.216-3.111 1.298-5.634 2.371-7.423.178-.295.355-.571.529-.827a9.76 9.76 0 00-7 8.25zm4.1 2.25h-4.1a9.76 9.76 0 007 8.25 17.567 17.567 0 01-.529-.828c-1.073-1.788-2.155-4.31-2.371-7.422zm2.256 0h6.66c-.211 2.603-1.124 4.73-2.045 6.265-.46.765-.918 1.379-1.285 1.823a14.964 14.964 0 01-1.285-1.823c-.921-1.535-1.834-3.662-2.045-6.265zm6.66-2.25H8.67c.211-2.603 1.124-4.73 2.045-6.265.46-.766.918-1.379 1.285-1.823.367.444.826 1.057 1.285 1.823.921 1.535 1.834 3.662 2.045 6.265zm2.256 2.25c-.216 3.111-1.298 5.634-2.371 7.422-.178.296-.355.572-.529.828a9.76 9.76 0 007-8.25h-4.1zm4.1-2.25h-4.1c-.216-3.111-1.298-5.634-2.371-7.423a17.635 17.635 0 00-.529-.827 9.76 9.76 0 017 8.25zM12 0C5.373 0 0 5.373 0 12c0 6.628 5.373 12 12 12 6.628 0 12-5.372 12-12 0-6.627-5.372-12-12-12z" fill="#fff"/></svg>