<svg width="84" height="48" viewBox="0 0 84 48" fill="none" xmlns="http://www.w3.org/2000/svg">
<path d="M10.7435 19.8177C11.6423 17.4116 13.0203 13.7579 14.8477 8.91603C16.2257 5.32174 17.2442 2.6483 17.9033 0.836304H20.18L26.8904 18.6592C27.3997 19.9068 27.9389 20.6792 28.4781 21.0059C28.6878 21.095 28.8676 21.1841 29.0473 21.2436C29.1671 21.303 29.1671 21.3624 29.0473 21.4515H23.3854C23.2955 21.4515 23.2356 21.4218 23.2356 21.3327C23.2656 21.303 23.2955 21.303 23.3255 21.2733C24.0445 21.0653 24.4339 20.6495 24.4639 20.0554C24.4639 19.9068 24.4339 19.6989 24.344 19.4613L24.0744 18.6889L22.5167 14.6491H14.1586L12.6009 18.6889L12.3313 19.4613C12.2414 19.6989 12.2114 19.9068 12.2114 20.0554C12.2414 20.6792 12.6009 21.095 13.3498 21.2733C13.4397 21.3624 13.4097 21.4218 13.2599 21.4812H9.03599C8.94611 21.4515 8.94611 21.3921 9.03599 21.2733C9.90474 20.9465 10.4739 20.4712 10.7435 19.8177ZM18.3526 3.48004L14.608 13.4609H22.1272L18.3526 3.48004Z" fill="white"/>
<path d="M33.0915 7.72784H37.4053C37.4952 7.72784 37.5252 7.78725 37.4952 7.84666C37.4652 7.87636 37.4353 7.90606 37.4053 7.90606C36.8961 8.11399 36.5965 8.58928 36.5665 9.3319V19.788C36.6564 20.5603 36.926 21.0356 37.4053 21.2138C37.5252 21.2733 37.5252 21.3327 37.4053 21.4218H33.0915C33.0016 21.3921 33.0016 21.3327 33.0915 21.2138C33.6307 21.0059 33.9303 20.5306 33.9902 19.788V9.3319C33.9004 8.55957 33.6008 8.08429 33.0915 7.90606C33.0016 7.84665 33.0016 7.75754 33.0915 7.72784ZM35.2784 3.50974C35.9973 3.50974 36.4767 3.80679 36.7163 4.37118C36.8062 4.51971 36.8361 4.66823 36.8361 4.84646C36.8361 5.49997 36.5066 5.91583 35.8176 6.15347C35.6379 6.21288 35.4581 6.21289 35.2784 6.21289C34.5894 6.21289 34.0801 5.94554 33.8105 5.38115C33.7206 5.20292 33.6907 5.02469 33.6907 4.84646C33.6907 4.25236 34.0202 3.83649 34.7092 3.62856C34.8889 3.53945 35.0986 3.50974 35.2784 3.50974Z" fill="white"/>
<path d="M66.8831 7.49019C67.7518 7.49019 68.6805 7.63872 69.6391 7.96547C72.1555 8.91603 73.5935 10.223 73.953 11.9162C74.0129 12.2133 74.0428 12.4806 74.0428 12.7777C74.0428 15.867 74.0428 18.2137 74.0728 19.8177C74.1027 20.5603 74.3724 21.0356 74.9116 21.2436C75.0015 21.3327 75.0015 21.3921 74.9116 21.4515H70.5978C70.5079 21.4515 70.4779 21.4218 70.5079 21.3327C70.5378 21.303 70.5678 21.303 70.5978 21.2733C71.107 21.0653 71.4066 20.59 71.4366 19.8474V12.8074C71.4366 10.8468 70.7476 9.56953 69.3396 8.97544C69.2497 8.94573 69.1598 8.88633 69.07 8.88633C68.6206 8.7378 68.1413 8.64868 67.5721 8.64868C66.0443 8.64868 64.7561 9.12396 63.7076 10.0745C62.9887 10.728 62.6292 11.4112 62.6292 12.1242V20.0257C62.6591 20.6792 62.9288 21.1247 63.468 21.303C63.5579 21.3327 63.5878 21.3624 63.5578 21.4218C63.5279 21.4515 63.4979 21.4515 63.468 21.4515H59.2141C59.1242 21.4515 59.0942 21.4218 59.0942 21.3624C59.1542 21.3327 59.1841 21.3327 59.2141 21.303C59.7833 21.1247 60.0529 20.7089 60.0529 20.0257V9.53983C60.0229 8.64868 59.7234 8.114 59.1542 7.93577C59.0643 7.84665 59.0643 7.78725 59.1542 7.72784H60.9216C61.6406 7.72784 62.1499 8.08429 62.4794 8.7972C62.5094 8.85662 62.5094 8.91603 62.5094 8.91603C63.7975 7.96548 65.2654 7.49019 66.8831 7.49019Z" fill="white"/>
<path d="M1.09736 26.234H16.0759V28.1351C16.0759 28.2242 16.016 28.2539 15.9261 28.1945C15.8962 28.1648 15.8662 28.1648 15.8362 28.1351C15.5666 27.6598 15.0274 27.3925 14.1586 27.3925H4.78208V36.3336H10.6836C11.5823 36.3039 12.1515 36.0663 12.3912 35.591C12.4211 35.5316 12.481 35.5019 12.541 35.5316C12.5709 35.5613 12.5709 35.591 12.5709 35.591V38.2644C12.5709 38.3239 12.541 38.3239 12.4511 38.3239C12.4211 38.2942 12.3912 38.2941 12.3612 38.2644C12.0916 37.7595 11.5224 37.4921 10.6537 37.4921H4.75212V45.661H14.1287C14.9974 45.6312 15.5666 45.3936 15.8063 44.9183C15.8962 44.7995 15.9561 44.7995 16.0459 44.9183V46.8194H1.0674C0.977532 46.7897 0.977532 46.7303 1.0674 46.6115C1.66654 46.4036 1.99608 45.9283 2.08595 45.1857V27.8974C1.99608 27.1251 1.66654 26.6201 1.0674 26.4419C0.977532 26.3231 0.977534 26.2637 1.09736 26.234Z" fill="white"/>
<path d="M28.1186 25.1349L27.6393 26.7092C27.3098 26.3231 26.8305 26.1449 26.2313 26.1152C25.9018 26.1152 25.5723 26.2043 25.2727 26.3528C24.7634 26.5607 24.4339 27.0657 24.344 27.838C24.2542 28.4024 24.2242 29.4124 24.2242 30.8679V33.1255H26.9803V34.1355H24.2242V45.2451C24.2542 45.9877 24.5238 46.463 25.063 46.6709C25.1828 46.7303 25.1828 46.7897 25.063 46.8789H20.7492C20.6593 46.8492 20.6593 46.7897 20.7492 46.6709C21.3184 46.463 21.588 45.9877 21.588 45.2451C21.6479 44.146 21.6779 42.5716 21.6779 40.4626C21.6779 39.6309 21.6779 38.4724 21.6479 36.9277C21.6479 35.6504 21.6479 34.6999 21.6479 34.1355H19.8804V33.1255H21.6479V30.8679C21.6479 28.4618 22.6665 26.7687 24.7335 25.8181C25.782 25.3428 26.8904 25.1349 28.1186 25.1349Z" fill="white"/>
<path d="M37.5851 25.1349L37.1058 26.7092C36.7762 26.3231 36.2969 26.1449 35.6978 26.1152C35.3682 26.1152 35.0387 26.2043 34.7392 26.3528C34.2299 26.5607 33.9004 27.0657 33.8105 27.838C33.7206 28.4024 33.6907 29.4124 33.6907 30.8679V33.1255H36.4467V34.1355H33.6907V45.2451C33.7206 45.9877 33.9902 46.463 34.5294 46.6709C34.6493 46.7303 34.6493 46.7897 34.5294 46.8789H30.2156C30.1258 46.8492 30.1258 46.7897 30.2156 46.6709C30.7848 46.463 31.0544 45.9877 31.0544 45.2451C31.1143 44.146 31.1443 42.5716 31.1443 40.4626C31.1443 39.6309 31.1443 38.4724 31.1143 36.9277C31.1143 35.6504 31.1143 34.6999 31.1143 34.1355H29.3469V33.1255H31.1143V30.8679C31.1143 28.4618 32.1329 26.7687 34.1999 25.8181C35.2185 25.3428 36.3269 25.1349 37.5851 25.1349Z" fill="white"/>
<path d="M46.7519 32.8582C48.9089 32.8582 50.6164 33.5414 51.9046 34.9078C52.5936 35.6801 53.013 36.5416 53.1328 37.4921V37.5515C53.0729 37.9971 52.8033 38.2644 52.294 38.3833L41.1799 39.6012C41.3597 41.532 42.2883 43.0766 43.936 44.2945C44.1756 44.4431 44.3853 44.5916 44.595 44.7401C45.6136 45.3639 46.7519 45.661 48.0401 45.661C49.4481 45.6312 51.0358 45.2748 52.8033 44.5916L52.9231 44.9777C51.9046 46.0768 50.2869 46.76 48.0401 47.0571C47.4409 47.1462 46.8718 47.1759 46.3325 47.1759C45.1043 47.1759 44.1157 46.9977 43.3368 46.6412C41.1799 45.6907 39.7719 44.1163 39.1129 41.8884C38.9032 41.1755 38.8133 40.4626 38.8133 39.7497C38.8133 36.8386 40.1314 34.789 42.7377 33.6008C43.936 33.1552 45.284 32.8582 46.7519 32.8582ZM46.0929 34.1058C44.4452 34.1058 43.0972 34.6999 42.1086 35.8583C41.4495 36.6604 41.15 37.5515 41.15 38.5318C41.8989 38.4427 42.7677 38.3536 43.7562 38.2347C44.7448 38.1159 45.7933 37.9971 46.9616 37.8783C48.1 37.7595 49.0586 37.6406 49.8375 37.5218L51.0058 37.403C50.6763 35.8881 49.6877 34.8781 48.0101 34.3731C47.411 34.1949 46.7819 34.1058 46.0929 34.1058Z" fill="white"/>
<path d="M71.4665 36.898L68.9202 37.3436C68.7105 35.8881 67.7518 34.9078 66.0443 34.3731C65.5949 34.2543 65.1456 34.1652 64.6962 34.1058C64.6363 34.1058 64.5464 34.1058 64.3967 34.076C64.2768 34.076 64.187 34.076 64.127 34.076C61.7904 34.076 60.2925 35.086 59.6335 37.0762C59.4537 37.6406 59.3639 38.2644 59.3639 38.9179V39.4229C59.4837 41.2943 60.2626 42.839 61.7005 43.9975C62.06 44.2945 62.4494 44.5619 62.8389 44.7995C63.8574 45.4233 64.9958 45.7204 66.2839 45.7204C67.6919 45.6907 69.2796 45.3342 71.0471 44.651L71.167 45.0371C70.1484 46.1362 68.5307 46.8194 66.2839 47.1165C65.6848 47.2056 65.1156 47.2353 64.5764 47.2353C63.3482 47.2353 62.3596 47.0571 61.5807 46.7006C59.4238 45.7501 58.0158 44.1757 57.3567 41.9478C57.147 41.2349 57.0572 40.522 57.0572 39.8091C57.0572 39.7497 57.0572 39.6309 57.0572 39.512C57.0871 39.3932 57.0871 39.2744 57.0871 39.215C57.177 36.5713 58.4951 34.6999 61.0415 33.6008C62.2697 33.0958 63.5878 32.8285 64.9958 32.8285C67.0628 32.8285 68.7404 33.3928 70.0585 34.5216C70.8075 35.2642 71.2868 36.0366 71.4665 36.898Z" fill="white"/>
<path d="M77.8174 28.7589C78.5064 28.7589 79.0157 29.1153 79.2853 29.8283C79.3752 30.0362 79.4052 30.2144 79.4052 30.3927C79.4052 30.6006 79.4052 30.9867 79.4052 31.5214C79.3752 32.2343 79.3752 32.769 79.3752 33.1255H81.6519V34.1355H79.3752C79.3752 37.6406 79.3752 40.1358 79.4052 41.6508C79.4052 43.9678 79.5549 45.3639 79.8845 45.7798C80.0342 45.9283 80.214 46.0768 80.4237 46.1659C80.6933 46.2848 80.9629 46.3442 81.2325 46.3442C81.8317 46.3145 82.2511 46.1362 82.5207 45.8095L83 47.3838C79.3452 47.3838 77.3381 46.2253 76.9187 43.9084C76.8588 43.641 76.8288 43.3737 76.8288 43.0766V34.1652H75.3609V33.1552H76.8288V30.6006C76.7989 29.7094 76.5293 29.1748 75.99 28.9668C75.9002 28.9371 75.8702 28.9074 75.9002 28.848C75.9301 28.8183 75.9601 28.8183 75.99 28.8183H77.8174V28.7589Z" fill="white"/>
<path d="M54.7505 10.6092C54.5108 10.2825 54.2412 9.9557 53.9117 9.65865C52.3839 8.23282 50.5565 7.5199 48.3996 7.5199C47.8604 7.5199 47.3511 7.57931 46.8718 7.66842C47.2013 8.114 47.6507 8.58928 48.1899 8.88633C48.4295 8.91603 48.6692 8.97544 48.9388 9.03485C50.5265 9.48042 51.7847 10.4013 52.6535 11.8271C53.4623 13.045 53.8518 14.352 53.8518 15.7184C53.8518 16.8769 53.4923 17.8572 52.8033 18.7186C51.8746 19.6395 50.7662 20.0851 49.508 20.1148C47.9502 20.0851 46.4823 19.4316 45.1043 18.1245C43.906 16.8472 43.3069 15.3026 43.2769 13.4609C43.2769 13.1341 43.3069 12.8371 43.3368 12.5697C43.1271 11.8568 42.7976 10.9657 42.4681 10.2824C41.3597 11.5598 40.8204 13.0153 40.8204 14.6788C40.8204 16.8175 41.7791 18.7186 43.6963 20.3227C44.8946 21.3327 46.4224 21.8377 48.2797 21.8377C50.4966 21.8377 52.4138 21.0653 53.9716 19.5504C55.4395 18.1245 56.1884 16.4908 56.2184 14.6194C56.1884 13.2826 55.7091 11.9459 54.7505 10.6092Z" fill="white"/>
<path d="M50.0173 14.9461C50.227 14.857 50.197 14.56 49.9573 14.5005C48.5793 14.2926 45.5537 13.4906 43.8761 10.5201C42.498 8.0843 43.3967 6.21289 44.2355 5.17322C44.4153 4.96528 44.1457 4.69794 43.906 4.84646C42.7077 5.55938 41.0901 6.98521 40.9103 9.42101C40.6107 13.3718 43.6364 15.4214 46.2427 15.6293C47.9502 15.7481 49.2683 15.2729 50.0173 14.9461Z" fill="white"/>
<path d="M10.7435 19.8177C11.6423 17.4116 13.0203 13.7579 14.8477 8.91603C16.2257 5.32174 17.2442 2.6483 17.9033 0.836304H20.18L26.8904 18.6592C27.3997 19.9068 27.9389 20.6792 28.4781 21.0059C28.6878 21.095 28.8676 21.1841 29.0473 21.2436C29.1671 21.303 29.1671 21.3624 29.0473 21.4515H23.3854C23.2955 21.4515 23.2356 21.4218 23.2356 21.3327C23.2656 21.303 23.2955 21.303 23.3255 21.2733C24.0445 21.0653 24.4339 20.6495 24.4639 20.0554C24.4639 19.9068 24.4339 19.6989 24.344 19.4613L24.0744 18.6889L22.5167 14.6491H14.1586L12.6009 18.6889L12.3313 19.4613C12.2414 19.6989 12.2114 19.9068 12.2114 20.0554C12.2414 20.6792 12.6009 21.095 13.3498 21.2733C13.4397 21.3624 13.4097 21.4218 13.2599 21.4812H9.03599C8.94611 21.4515 8.94611 21.3921 9.03599 21.2733C9.90474 20.9465 10.4739 20.4712 10.7435 19.8177ZM18.3526 3.48004L14.608 13.4609H22.1272L18.3526 3.48004Z" stroke="white" stroke-width="0.4"/>
<path d="M33.0915 7.72784H37.4053C37.4952 7.72784 37.5252 7.78725 37.4952 7.84666C37.4652 7.87636 37.4353 7.90606 37.4053 7.90606C36.8961 8.11399 36.5965 8.58928 36.5665 9.3319V19.788C36.6564 20.5603 36.926 21.0356 37.4053 21.2138C37.5252 21.2733 37.5252 21.3327 37.4053 21.4218H33.0915C33.0016 21.3921 33.0016 21.3327 33.0915 21.2138C33.6307 21.0059 33.9303 20.5306 33.9902 19.788V9.3319C33.9004 8.55957 33.6008 8.08429 33.0915 7.90606C33.0016 7.84665 33.0016 7.75754 33.0915 7.72784ZM35.2784 3.50974C35.9973 3.50974 36.4767 3.80679 36.7163 4.37118C36.8062 4.51971 36.8361 4.66823 36.8361 4.84646C36.8361 5.49997 36.5066 5.91583 35.8176 6.15347C35.6379 6.21288 35.4581 6.21289 35.2784 6.21289C34.5894 6.21289 34.0801 5.94554 33.8105 5.38115C33.7206 5.20292 33.6907 5.02469 33.6907 4.84646C33.6907 4.25236 34.0202 3.83649 34.7092 3.62856C34.8889 3.53945 35.0986 3.50974 35.2784 3.50974Z" stroke="white" stroke-width="0.4"/>
<path d="M66.8831 7.49019C67.7518 7.49019 68.6805 7.63872 69.6391 7.96547C72.1555 8.91603 73.5935 10.223 73.953 11.9162C74.0129 12.2133 74.0428 12.4806 74.0428 12.7777C74.0428 15.867 74.0428 18.2137 74.0728 19.8177C74.1027 20.5603 74.3724 21.0356 74.9116 21.2436C75.0015 21.3327 75.0015 21.3921 74.9116 21.4515H70.5978C70.5079 21.4515 70.4779 21.4218 70.5079 21.3327C70.5378 21.303 70.5678 21.303 70.5978 21.2733C71.107 21.0653 71.4066 20.59 71.4366 19.8474V12.8074C71.4366 10.8468 70.7476 9.56953 69.3396 8.97544C69.2497 8.94573 69.1598 8.88633 69.07 8.88633C68.6206 8.7378 68.1413 8.64868 67.5721 8.64868C66.0443 8.64868 64.7561 9.12396 63.7076 10.0745C62.9887 10.728 62.6292 11.4112 62.6292 12.1242V20.0257C62.6591 20.6792 62.9288 21.1247 63.468 21.303C63.5579 21.3327 63.5878 21.3624 63.5578 21.4218C63.5279 21.4515 63.4979 21.4515 63.468 21.4515H59.2141C59.1242 21.4515 59.0942 21.4218 59.0942 21.3624C59.1542 21.3327 59.1841 21.3327 59.2141 21.303C59.7833 21.1247 60.0529 20.7089 60.0529 20.0257V9.53983C60.0229 8.64868 59.7234 8.114 59.1542 7.93577C59.0643 7.84665 59.0643 7.78725 59.1542 7.72784H60.9216C61.6406 7.72784 62.1499 8.08429 62.4794 8.7972C62.5094 8.85662 62.5094 8.91603 62.5094 8.91603C63.7975 7.96548 65.2654 7.49019 66.8831 7.49019Z" stroke="white" stroke-width="0.4"/>
<path d="M1.09736 26.234H16.0759V28.1351C16.0759 28.2242 16.016 28.2539 15.9261 28.1945C15.8962 28.1648 15.8662 28.1648 15.8362 28.1351C15.5666 27.6598 15.0274 27.3925 14.1586 27.3925H4.78208V36.3336H10.6836C11.5823 36.3039 12.1515 36.0663 12.3912 35.591C12.4211 35.5316 12.481 35.5019 12.541 35.5316C12.5709 35.5613 12.5709 35.591 12.5709 35.591V38.2644C12.5709 38.3239 12.541 38.3239 12.4511 38.3239C12.4211 38.2942 12.3912 38.2941 12.3612 38.2644C12.0916 37.7595 11.5224 37.4921 10.6537 37.4921H4.75212V45.661H14.1287C14.9974 45.6312 15.5666 45.3936 15.8063 44.9183C15.8962 44.7995 15.9561 44.7995 16.0459 44.9183V46.8194H1.0674C0.977532 46.7897 0.977532 46.7303 1.0674 46.6115C1.66654 46.4036 1.99608 45.9283 2.08595 45.1857V27.8974C1.99608 27.1251 1.66654 26.6201 1.0674 26.4419C0.977532 26.3231 0.977534 26.2637 1.09736 26.234Z" stroke="white" stroke-width="0.4"/>
<path d="M28.1186 25.1349L27.6393 26.7092C27.3098 26.3231 26.8305 26.1449 26.2313 26.1152C25.9018 26.1152 25.5723 26.2043 25.2727 26.3528C24.7634 26.5607 24.4339 27.0657 24.344 27.838C24.2542 28.4024 24.2242 29.4124 24.2242 30.8679V33.1255H26.9803V34.1355H24.2242V45.2451C24.2542 45.9877 24.5238 46.463 25.063 46.6709C25.1828 46.7303 25.1828 46.7897 25.063 46.8789H20.7492C20.6593 46.8492 20.6593 46.7897 20.7492 46.6709C21.3184 46.463 21.588 45.9877 21.588 45.2451C21.6479 44.146 21.6779 42.5716 21.6779 40.4626C21.6779 39.6309 21.6779 38.4724 21.6479 36.9277C21.6479 35.6504 21.6479 34.6999 21.6479 34.1355H19.8804V33.1255H21.6479V30.8679C21.6479 28.4618 22.6665 26.7687 24.7335 25.8181C25.782 25.3428 26.8904 25.1349 28.1186 25.1349Z" stroke="white" stroke-width="0.4"/>
<path d="M37.5851 25.1349L37.1058 26.7092C36.7762 26.3231 36.2969 26.1449 35.6978 26.1152C35.3682 26.1152 35.0387 26.2043 34.7392 26.3528C34.2299 26.5607 33.9004 27.0657 33.8105 27.838C33.7206 28.4024 33.6907 29.4124 33.6907 30.8679V33.1255H36.4467V34.1355H33.6907V45.2451C33.7206 45.9877 33.9902 46.463 34.5294 46.6709C34.6493 46.7303 34.6493 46.7897 34.5294 46.8789H30.2156C30.1258 46.8492 30.1258 46.7897 30.2156 46.6709C30.7848 46.463 31.0544 45.9877 31.0544 45.2451C31.1143 44.146 31.1443 42.5716 31.1443 40.4626C31.1443 39.6309 31.1443 38.4724 31.1143 36.9277C31.1143 35.6504 31.1143 34.6999 31.1143 34.1355H29.3469V33.1255H31.1143V30.8679C31.1143 28.4618 32.1329 26.7687 34.1999 25.8181C35.2185 25.3428 36.3269 25.1349 37.5851 25.1349Z" stroke="white" stroke-width="0.4"/>
<path d="M46.7519 32.8582C48.9089 32.8582 50.6164 33.5414 51.9046 34.9078C52.5936 35.6801 53.013 36.5416 53.1328 37.4921V37.5515C53.0729 37.9971 52.8033 38.2644 52.294 38.3833L41.1799 39.6012C41.3597 41.532 42.2883 43.0766 43.936 44.2945C44.1756 44.4431 44.3853 44.5916 44.595 44.7401C45.6136 45.3639 46.7519 45.661 48.0401 45.661C49.4481 45.6312 51.0358 45.2748 52.8033 44.5916L52.9231 44.9777C51.9046 46.0768 50.2869 46.76 48.0401 47.0571C47.4409 47.1462 46.8718 47.1759 46.3325 47.1759C45.1043 47.1759 44.1157 46.9977 43.3368 46.6412C41.1799 45.6907 39.7719 44.1163 39.1129 41.8884C38.9032 41.1755 38.8133 40.4626 38.8133 39.7497C38.8133 36.8386 40.1314 34.789 42.7377 33.6008C43.936 33.1552 45.284 32.8582 46.7519 32.8582ZM46.0929 34.1058C44.4452 34.1058 43.0972 34.6999 42.1086 35.8583C41.4495 36.6604 41.15 37.5515 41.15 38.5318C41.8989 38.4427 42.7677 38.3536 43.7562 38.2347C44.7448 38.1159 45.7933 37.9971 46.9616 37.8783C48.1 37.7595 49.0586 37.6406 49.8375 37.5218L51.0058 37.403C50.6763 35.8881 49.6877 34.8781 48.0101 34.3731C47.411 34.1949 46.7819 34.1058 46.0929 34.1058Z" stroke="white" stroke-width="0.4"/>
<path d="M71.4665 36.898L68.9202 37.3436C68.7105 35.8881 67.7518 34.9078 66.0443 34.3731C65.5949 34.2543 65.1456 34.1652 64.6962 34.1058C64.6363 34.1058 64.5464 34.1058 64.3967 34.076C64.2768 34.076 64.187 34.076 64.127 34.076C61.7904 34.076 60.2925 35.086 59.6335 37.0762C59.4537 37.6406 59.3639 38.2644 59.3639 38.9179V39.4229C59.4837 41.2943 60.2626 42.839 61.7005 43.9975C62.06 44.2945 62.4494 44.5619 62.8389 44.7995C63.8574 45.4233 64.9958 45.7204 66.2839 45.7204C67.6919 45.6907 69.2796 45.3342 71.0471 44.651L71.167 45.0371C70.1484 46.1362 68.5307 46.8194 66.2839 47.1165C65.6848 47.2056 65.1156 47.2353 64.5764 47.2353C63.3482 47.2353 62.3596 47.0571 61.5807 46.7006C59.4238 45.7501 58.0158 44.1757 57.3567 41.9478C57.147 41.2349 57.0572 40.522 57.0572 39.8091C57.0572 39.7497 57.0572 39.6309 57.0572 39.512C57.0871 39.3932 57.0871 39.2744 57.0871 39.215C57.177 36.5713 58.4951 34.6999 61.0415 33.6008C62.2697 33.0958 63.5878 32.8285 64.9958 32.8285C67.0628 32.8285 68.7404 33.3928 70.0585 34.5216C70.8075 35.2642 71.2868 36.0366 71.4665 36.898Z" stroke="white" stroke-width="0.4"/>
<path d="M77.8174 28.7589C78.5064 28.7589 79.0157 29.1153 79.2853 29.8283C79.3752 30.0362 79.4052 30.2144 79.4052 30.3927C79.4052 30.6006 79.4052 30.9867 79.4052 31.5214C79.3752 32.2343 79.3752 32.769 79.3752 33.1255H81.6519V34.1355H79.3752C79.3752 37.6406 79.3752 40.1358 79.4052 41.6508C79.4052 43.9678 79.5549 45.3639 79.8845 45.7798C80.0342 45.9283 80.214 46.0768 80.4237 46.1659C80.6933 46.2848 80.9629 46.3442 81.2325 46.3442C81.8317 46.3145 82.2511 46.1362 82.5207 45.8095L83 47.3838C79.3452 47.3838 77.3381 46.2253 76.9187 43.9084C76.8588 43.641 76.8288 43.3737 76.8288 43.0766V34.1652H75.3609V33.1552H76.8288V30.6006C76.7989 29.7094 76.5293 29.1748 75.99 28.9668C75.9002 28.9371 75.8702 28.9074 75.9002 28.848C75.9301 28.8183 75.9601 28.8183 75.99 28.8183H77.8174V28.7589Z" stroke="white" stroke-width="0.4"/>
<path d="M54.7505 10.6092C54.5108 10.2825 54.2412 9.9557 53.9117 9.65865C52.3839 8.23282 50.5565 7.5199 48.3996 7.5199C47.8604 7.5199 47.3511 7.57931 46.8718 7.66842C47.2013 8.114 47.6507 8.58928 48.1899 8.88633C48.4295 8.91603 48.6692 8.97544 48.9388 9.03485C50.5265 9.48042 51.7847 10.4013 52.6535 11.8271C53.4623 13.045 53.8518 14.352 53.8518 15.7184C53.8518 16.8769 53.4923 17.8572 52.8033 18.7186C51.8746 19.6395 50.7662 20.0851 49.508 20.1148C47.9502 20.0851 46.4823 19.4316 45.1043 18.1245C43.906 16.8472 43.3069 15.3026 43.2769 13.4609C43.2769 13.1341 43.3069 12.8371 43.3368 12.5697C43.1271 11.8568 42.7976 10.9657 42.4681 10.2824C41.3597 11.5598 40.8204 13.0153 40.8204 14.6788C40.8204 16.8175 41.7791 18.7186 43.6963 20.3227C44.8946 21.3327 46.4224 21.8377 48.2797 21.8377C50.4966 21.8377 52.4138 21.0653 53.9716 19.5504C55.4395 18.1245 56.1884 16.4908 56.2184 14.6194C56.1884 13.2826 55.7091 11.9459 54.7505 10.6092Z" stroke="white" stroke-width="0.4"/>
<path d="M50.0173 14.9461C50.227 14.857 50.197 14.56 49.9573 14.5005C48.5793 14.2926 45.5537 13.4906 43.8761 10.5201C42.498 8.0843 43.3967 6.21289 44.2355 5.17322C44.4153 4.96528 44.1457 4.69794 43.906 4.84646C42.7077 5.55938 41.0901 6.98521 40.9103 9.42101C40.6107 13.3718 43.6364 15.4214 46.2427 15.6293C47.9502 15.7481 49.2683 15.2729 50.0173 14.9461Z" stroke="white" stroke-width="0.4"/>
</svg>
