<?xml version="1.0" standalone="no"?>
<!DOCTYPE svg PUBLIC "-//W3C//DTD SVG 20010904//EN"
 "http://www.w3.org/TR/2001/REC-SVG-20010904/DTD/svg10.dtd">
<svg version="1.0" xmlns="http://www.w3.org/2000/svg"
 width="512.000000pt" height="512.000000pt" viewBox="0 0 512.000000 512.000000"
 preserveAspectRatio="xMidYMid meet">
<metadata>
Created by potrace 1.14, written by Peter Selinger 2001-2017
</metadata>
<g transform="translate(0.000000,512.000000) scale(0.100000,-0.100000)"
fill="#000000" stroke="none">
<path d="M989 5116 c-2 -2 -26 -7 -54 -11 -390 -52 -747 -356 -878 -746 -58
-171 -56 -110 -56 -1794 0 -894 4 -1573 9 -1605 5 -30 12 -69 14 -85 9 -53 58
-188 96 -265 132 -261 368 -464 645 -554 176 -57 99 -55 1790 -55 858 0 1580
4 1605 9 25 4 61 11 80 14 85 14 238 73 325 124 239 143 412 356 499 615 55
162 55 165 56 1318 l0 1065 -216 250 c-336 387 -480 547 -511 570 -82 61 -233
120 -408 159 -117 26 -121 28 -259 119 -78 51 -226 154 -331 230 -205 149
-477 332 -783 525 l-192 121 -714 0 c-392 -1 -715 -3 -717 -4z"/>
<path d="M3517 4863 c143 -142 303 -310 356 -374 138 -168 287 -280 487 -368
96 -41 258 -131 533 -293 120 -70 220 -128 223 -128 11 0 1 422 -12 498 -65
373 -320 694 -664 834 -194 80 -244 85 -759 87 l-424 1 260 -257z"/>
</g>
</svg>
